<?xml version="1.0" standalone="no"?>
<!DOCTYPE svg PUBLIC "-//W3C//DTD SVG 20010904//EN"
 "http://www.w3.org/TR/2001/REC-SVG-20010904/DTD/svg10.dtd">
<svg version="1.0" xmlns="http://www.w3.org/2000/svg"
 width="252.000000pt" height="252.000000pt" viewBox="0 0 252.000000 252.000000"
 preserveAspectRatio="xMidYMid meet">
<metadata>
Created by potrace 1.14, written by Peter Selinger 2001-2017
</metadata>
<g transform="translate(0.000000,252.000000) scale(0.100000,-0.100000)"
fill="#000000" stroke="none">
<path d="M688 2004 c-2 -1 -23 -5 -48 -7 -129 -15 -287 -92 -380 -186 -163
-164 -241 -386 -244 -701 -1 -63 1 -133 5 -155 4 -22 9 -60 12 -85 5 -41 29
-133 44 -170 4 -8 7 -17 8 -20 0 -3 10 -23 22 -45 27 -51 67 -92 96 -97 12 -2
116 -3 232 -3 l210 0 3 28 3 27 132 -1 c73 0 151 0 175 0 l43 1 -7 48 c-3 26
-12 59 -20 73 -16 32 -77 73 -133 90 -49 15 -57 23 -66 70 -7 37 2 42 45 26
28 -11 104 -19 205 -21 55 -2 102 -4 104 -5 11 -3 -21 -25 -41 -28 -49 -8 -78
-66 -58 -117 12 -32 61 -84 97 -103 16 -9 55 -17 87 -18 72 -4 134 23 197 86
40 40 41 40 62 22 12 -10 24 -20 27 -23 3 -3 33 -27 66 -53 l61 -48 164 0 c90
0 189 0 220 0 l56 1 -2 43 c-5 80 -50 132 -142 163 -70 24 -84 46 -84 134 0
60 2 77 12 130 13 70 16 81 35 145 10 33 18 62 19 65 8 41 30 79 53 90 47 22
132 49 132 42 0 -3 5 -1 12 6 7 7 19 12 27 12 20 0 151 63 151 72 0 4 6 8 14
8 8 0 43 28 78 63 77 74 115 147 126 240 l8 67 -117 0 -117 0 -43 43 -43 42
-81 0 c-67 1 -86 5 -112 23 -46 32 -130 27 -154 -10 -4 -6 -69 -12 -145 -14
-77 -2 -152 -6 -169 -8 -114 -15 -183 -20 -275 -20 -113 0 -157 5 -217 28 -51
20 -120 38 -163 43 -50 5 -179 10 -182 7z m12 -74 c0 -5 -17 -9 -37 -9 l-38 2
35 7 c19 4 36 8 38 9 1 0 2 -3 2 -9z m170 -6 c0 -2 -18 -4 -40 -4 -22 0 -40 3
-40 8 0 4 18 6 40 4 22 -2 40 -6 40 -8z m1094 -18 c9 -14 12 -28 7 -31 -5 -3
-12 4 -16 15 -4 11 -11 17 -17 14 -7 -4 -8 -2 -4 4 8 13 -4 15 -28 6 -9 -3
-13 -11 -9 -18 3 -6 2 -8 -2 -3 -5 4 -16 0 -26 -9 -11 -10 -19 -12 -24 -5 -3
6 0 11 7 11 8 0 21 9 31 20 23 28 61 26 81 -4z m-1347 8 c-3 -3 -12 -4 -19 -1
-8 3 -5 6 6 6 11 1 17 -2 13 -5z m296 -1 c-7 -2 -19 -2 -25 0 -7 3 -2 5 12 5
14 0 19 -2 13 -5z m-343 -12 c-8 -5 -28 -11 -45 -14 l-30 -6 30 14 c34 16 72
21 45 6z m390 5 c0 -11 -19 -15 -25 -6 -3 5 1 10 9 10 9 0 16 -2 16 -4z m100
-38 c10 -6 7 -7 -10 -2 -14 3 -32 11 -40 16 -10 6 -7 7 10 2 14 -3 32 -11 40
-16z m570 12 c0 -5 -19 -9 -42 -9 l-43 2 40 7 c22 4 41 8 43 9 1 0 2 -3 2 -9z
m497 4 c-3 -3 -12 -4 -19 -1 -8 3 -5 6 6 6 11 1 17 -2 13 -5z m-1637 -8 c0 -2
-7 -7 -16 -10 -8 -3 -12 -2 -9 4 6 10 25 14 25 6z m1045 -6 c-3 -5 -25 -9 -48
-8 l-42 1 45 7 c25 4 46 8 48 8 2 1 0 -2 -3 -8z m-424 -18 c-7 -2 -18 1 -23 6
-8 8 -4 9 13 5 13 -4 18 -8 10 -11z m1069 14 c0 -2 -8 -10 -17 -17 -16 -13
-17 -12 -4 4 13 16 21 21 21 13z m-880 -20 c14 -2 -14 -4 -62 -5 -49 0 -88 2
-88 7 0 6 92 6 150 -2z m118 7 c-10 -2 -26 -2 -35 0 -10 3 -2 5 17 5 19 0 27
-2 18 -5z m-993 -13 c-9 -15 -45 -32 -45 -22 0 5 10 14 23 20 29 14 29 14 22
2z m1789 -16 c18 -25 18 -25 -3 -12 -12 7 -21 17 -21 22 0 4 -8 2 -17 -5 -16
-13 -17 -12 -4 4 18 22 22 21 45 -9z m-1874 -48 c-19 -18 -37 -32 -40 -29 -5
4 60 62 70 63 3 0 -11 -15 -30 -34z m1806 12 c0 -15 -2 -15 -16 -3 -19 18 -45
4 -37 -20 5 -11 13 -14 27 -10 12 4 20 2 20 -5 0 -17 -42 -7 -54 13 -9 14 -7
21 5 30 25 19 55 16 55 -5z m241 -16 c27 -32 28 -42 8 -68 -14 -18 -15 -17 -4
8 9 22 8 31 -7 52 -17 22 -26 25 -82 26 -35 0 -61 3 -58 8 2 4 30 6 62 5 50
-3 62 -7 81 -31z m-2116 -65 l-24 -22 19 27 c10 14 21 24 23 22 3 -3 -6 -15
-18 -27z m-35 -62 c-9 -7 -30 -37 -46 -66 -31 -57 -42 -61 -13 -6 35 69 66
112 71 98 3 -8 -3 -20 -12 -26z m2125 7 c-31 -44 -48 -56 -57 -40 -4 7 -4 10
1 6 4 -4 21 8 38 27 36 42 46 46 18 7z m-77 -77 c-31 -24 -164 -89 -170 -83
-3 3 11 11 30 18 20 6 36 16 36 22 0 6 3 8 6 5 9 -9 46 12 62 35 7 10 17 16
22 13 5 -3 12 0 15 6 4 5 10 8 13 5 3 -4 -3 -13 -14 -21z m-2114 -76 c0 -6 -4
-7 -10 -4 -5 3 -10 11 -10 16 0 6 5 7 10 4 6 -3 10 -11 10 -16z m1900 -19 c0
-5 -8 -10 -17 -10 -15 0 -16 2 -3 10 19 12 20 12 20 0z m-60 -22 c-117 -48
-157 -74 -247 -161 -52 -51 -97 -94 -101 -97 -18 -13 38 50 77 86 30 27 41 45
36 54 -5 8 -4 11 2 7 13 -8 55 27 45 38 -4 5 -2 5 5 1 14 -8 85 38 75 49 -4 5
-2 5 4 2 7 -4 32 2 55 13 24 11 51 19 59 19 8 0 4 -5 -10 -11z m-1883 -50 c-3
-8 -6 -5 -6 6 -1 11 2 17 5 13 3 -3 4 -12 1 -19z m1293 18 c0 -2 -7 -7 -16
-10 -8 -3 -12 -2 -9 4 6 10 25 14 25 6z m11 -39 c-10 -9 -11 -8 -5 6 3 10 9
15 12 12 3 -3 0 -11 -7 -18z m-1314 -19 c-3 -8 -6 -5 -6 6 -1 11 2 17 5 13 3
-3 4 -12 1 -19z m-7 -58 c0 -11 -4 -20 -9 -20 -5 0 -7 9 -4 20 3 11 7 20 9 20
2 0 4 -9 4 -20z m-10 -95 c0 -25 -3 -45 -8 -45 -4 0 -6 20 -4 45 2 25 6 45 8
45 2 0 4 -20 4 -45z m1715 7 c-3 -17 -13 -33 -22 -36 -13 -5 -14 -4 -3 9 21
25 -2 17 -34 -12 -17 -16 -10 -5 14 23 25 27 47 49 48 48 2 -2 1 -16 -3 -32z
m-199 -90 c-24 -31 -74 -111 -112 -177 -73 -129 -119 -195 -137 -195 -6 0 -3
6 6 13 26 19 67 79 61 88 -3 5 0 9 6 9 6 0 8 5 5 10 -3 6 -1 10 5 10 6 0 8 6
4 13 -4 6 -4 9 1 5 9 -9 35 36 35 60 0 8 3 12 6 9 7 -7 98 139 99 158 1 6 6 9
12 8 7 -2 15 6 18 17 4 11 11 20 16 20 6 0 7 5 3 12 -4 7 -3 8 5 4 8 -5 -3
-26 -33 -64z m187 28 c-3 -12 -8 -19 -11 -16 -5 6 5 36 12 36 2 0 2 -9 -1 -20z
m-85 -31 c-16 -11 -28 -25 -28 -29 0 -5 -11 -21 -25 -36 -13 -14 -22 -31 -18
-37 3 -6 1 -7 -6 -3 -18 12 66 126 92 126 7 0 0 -10 -15 -21z m69 -21 c-3 -8
-6 -5 -6 6 -1 11 2 17 5 13 3 -3 4 -12 1 -19z m-10 -55 c-3 -10 -5 -4 -5 12 0
17 2 24 5 18 2 -7 2 -21 0 -30z m-1678 -60 c-1 -53 -6 -49 -11 10 -2 20 0 37
4 37 4 0 8 -21 7 -47z m570 24 c-13 -13 -26 -21 -29 -19 -5 4 38 42 48 42 3 0
-6 -10 -19 -23z m62 -12 c19 -8 27 -14 19 -14 -14 0 -72 28 -59 29 4 0 22 -7
40 -15z m877 -27 c-12 -24 -21 -46 -20 -50 1 -3 -6 -9 -15 -12 -14 -6 -14 -4
-1 16 8 13 23 38 32 56 9 17 19 32 21 32 3 0 -5 -19 -17 -42z m159 -5 c-3 -10
-5 -2 -5 17 0 19 2 27 5 18 2 -10 2 -26 0 -35z m-940 1 c-3 -3 -12 -4 -19 -1
-8 3 -5 6 6 6 11 1 17 -2 13 -5z m-207 -35 c-6 -10 -16 -19 -23 -19 -8 0 -8 3
1 9 8 4 13 11 13 15 -3 20 0 26 9 21 7 -4 7 -13 0 -26z m274 23 c3 -5 -8 -6
-25 -4 -16 2 -29 6 -29 8 0 8 49 4 54 -4z m310 -8 c4 -9 4 -19 1 -22 -2 -3 -7
3 -11 12 -3 9 -11 13 -17 9 -6 -3 -7 -1 -3 5 10 17 23 15 30 -4z m-200 -2 c5
-8 -84 -4 -93 4 -2 2 16 4 42 4 25 0 48 -4 51 -8z m145 4 c-8 -8 -127 -12
-123 -4 3 4 33 8 66 8 34 0 59 -2 57 -4z m-1041 -62 c-3 -27 -4 -26 -9 8 -3
22 -1 34 4 29 5 -5 7 -21 5 -37z m590 -3 c0 -21 -4 -28 -15 -27 -9 2 -34 -17
-56 -41 -22 -24 -42 -42 -44 -39 -2 2 14 21 35 43 22 22 47 51 57 66 9 15 18
27 20 27 1 0 2 -13 3 -29z m-121 -9 c-14 -15 -41 -35 -59 -45 l-33 -19 25 21
c14 11 29 21 33 21 5 0 5 5 2 10 -3 6 1 10 10 10 8 0 18 7 21 15 4 8 11 15 17
15 6 0 -1 -12 -16 -28z m1190 -14 c-3 -7 -5 -2 -5 12 0 14 2 19 5 13 2 -7 2
-19 0 -25z m-241 -32 c-26 -45 -24 -56 14 -68 9 -3 10 -7 3 -11 -5 -3 -19 4
-31 16 l-20 22 25 43 c14 23 27 42 30 42 3 0 -7 -20 -21 -44z m-329 2 c-3 -7
-5 -2 -5 12 0 14 2 19 5 13 2 -7 2 -19 0 -25z m-1077 2 c0 -11 -2 -20 -4 -20
-2 0 -6 9 -9 20 -3 11 -1 20 4 20 5 0 9 -9 9 -20z m642 -83 c12 -9 42 -20 65
-26 23 -7 45 -16 48 -21 8 -13 8 -13 -55 11 -30 11 -61 21 -67 22 -7 0 -11 3
-8 5 3 3 -4 15 -14 26 -11 12 -22 35 -26 51 -5 25 -3 23 13 -12 11 -23 31 -48
44 -56z m1015 71 c-3 -8 -6 -5 -6 6 -1 11 2 17 5 13 3 -3 4 -12 1 -19z m-1307
-18 c-8 -5 -19 -10 -25 -10 -5 0 -3 5 5 10 8 5 20 10 25 10 6 0 3 -5 -5 -10z
m-50 -20 c-24 -15 -37 -11 -16 5 11 8 22 12 25 9 3 -3 -1 -9 -9 -14z m-47 -31
c-9 -9 -12 -7 -10 9 1 14 5 18 11 12 7 -7 6 -14 -1 -21z m798 18 c-6 -8 -8
-16 -6 -19 3 -3 -11 -4 -30 -1 -27 3 -35 0 -29 -8 4 -8 3 -9 -4 -5 -22 13 -13
33 12 29 13 -3 32 0 43 6 24 14 28 14 14 -2z m714 -43 c20 -3 38 -10 41 -15 7
-12 4 -11 -45 6 -44 15 -90 45 -91 58 0 5 14 -3 30 -17 17 -14 46 -28 65 -32z
m-1741 31 c3 -8 1 -15 -4 -15 -6 0 -10 7 -10 15 0 8 2 15 4 15 2 0 6 -7 10
-15z m394 -9 c-10 -7 -15 -16 -11 -20 4 -4 -1 -4 -11 0 -17 6 -16 8 5 20 31
17 39 17 17 0z m1062 -43 c0 3 11 -5 25 -19 l25 -25 170 3 c94 2 170 0 170 -4
0 -5 -76 -8 -168 -8 l-168 0 -52 38 c-28 20 -52 41 -52 46 0 5 11 -1 25 -14
14 -13 25 -21 25 -17z m-1437 -7 c-3 -4 -9 -2 -14 5 -13 22 -11 31 5 17 8 -7
12 -17 9 -22z m979 10 c7 4 8 2 4 -5 -6 -9 -11 -9 -22 0 -7 6 -11 16 -7 23 5
7 9 5 11 -7 2 -9 8 -14 14 -11z m186 -2 c-12 -12 -17 -13 -23 -3 -5 8 -4 10 4
5 6 -4 14 0 17 9 4 9 9 13 12 10 3 -3 -1 -13 -10 -21z m-747 -1 c2 1 3 0 2 -2
-1 -2 8 -12 21 -22 21 -17 43 -19 172 -19 81 0 145 -3 141 -6 -3 -3 -69 -5
-147 -5 -137 2 -144 3 -179 28 -48 36 -60 48 -35 35 12 -6 23 -10 25 -9z
m-211 -2 c0 -5 8 -12 18 -14 14 -4 14 -5 1 -6 -9 0 -22 6 -29 14 -9 10 -9 15
-1 15 6 0 11 -4 11 -9z m818 -13 c-3 -15 65 -17 97 -3 17 7 18 6 7 -6 -17 -19
-117 -19 -134 0 -8 9 -8 11 -1 7 6 -3 14 -2 18 4 9 14 16 13 13 -2z m777 1
c11 -17 -1 -21 -15 -4 -8 9 -8 15 -2 15 6 0 14 -5 17 -11z m-1499 -21 c4 -6
-2 -7 -17 -3 -35 10 -45 23 -15 18 15 -3 29 -10 32 -15z m73 -39 c24 -17 40
-33 36 -37 -3 -4 -9 -2 -13 4 -13 18 -69 54 -76 47 -3 -3 -6 -1 -6 5 0 19 14
14 59 -19z m-334 -9 c10 -11 16 -20 13 -20 -3 0 -13 9 -23 20 -10 11 -16 20
-13 20 3 0 13 -9 23 -20z m295 -25 c0 -1 -12 -2 -26 -2 -17 0 -22 2 -13 7 10
7 39 3 39 -5z"/>
</g>
</svg>
